<?xml version="1.0" encoding="UTF-8"?>
<svg id="Layer_1" xmlns="http://www.w3.org/2000/svg" version="1.1" viewBox="0 0 30 30">
  <!-- Generator: Adobe Illustrator 29.7.0, SVG Export Plug-In . SVG Version: 2.1.1 Build 138)  -->
  <defs>
    <style>
      .st0 {
        fill: #fff;
      }
    </style>
  </defs>
  <path class="st0" d="M22.9,5.4c-1,0-1.7.8-1.7,1.7s.8,1.7,1.7,1.7,1.7-.8,1.7-1.7-.8-1.7-1.7-1.7Z"/>
  <path class="st0" d="M15.1,7.7c-4,0-7.3,3.3-7.3,7.3s3.3,7.3,7.3,7.3,7.3-3.3,7.3-7.3-3.3-7.3-7.3-7.3ZM15.1,19.7c-2.6,0-4.7-2.1-4.7-4.7s2.1-4.7,4.7-4.7,4.7,2.1,4.7,4.7-2.1,4.7-4.7,4.7Z"/>
  <path class="st0" d="M20.9,29.9h-11.9C4.1,29.9.1,25.9.1,20.9v-11.9C.1,4.1,4.1.1,9.1.1h11.9c4.9,0,9,4,9,8.9v11.9c0,4.9-4,8.9-9,8.9ZM9.1,2.9c-3.4,0-6.1,2.8-6.1,6.1v11.9c0,3.4,2.8,6.1,6.1,6.1h11.9c3.4,0,6.1-2.8,6.1-6.1v-11.9c0-3.4-2.8-6.1-6.1-6.1h-11.9Z"/>
</svg>