<svg width="707" height="699" viewBox="0 0 707 699" fill="none" xmlns="http://www.w3.org/2000/svg">
<path d="M220.2 650.3V698H206.1V677.8H192.1V698H178.1V661.4C178.1 657.2 176.2 653.3 173.1 650.3H192.2V668.4H206.2V650.3H220.3H220.2ZM239.8 661.7C241.2 657.8 240.2 653.5 237.3 650.7L237 650.4H258.1L275.5 698.1H261.5L258.1 688.8H245.6C244.8 688.8 244 689.3 243.7 690.2L240.8 698.2H226.8L240 661.9L239.8 661.7ZM254.5 679.5C253.1 675.8 252.3 673.3 251 669.6C249.6 673.3 248.7 675.8 247.5 679.5H254.6H254.5ZM308.4 698L303.2 681.4H294.9V698H280.9V661.4C280.9 657.2 279 653.3 275.9 650.3H301.6C314.2 650.3 321.9 653 321.9 662.6V669.1C321.9 674 319.9 677.1 316.1 679L323 698H308.4ZM301.5 672.2C305.8 672.2 307.8 670.9 307.8 668.1V663.7C307.8 661 305.8 659.7 301.5 659.7H294.9V672.2H301.5ZM343.3 689.6C344.4 686.8 344.4 683.7 343.3 680.9L334.6 659.7C332.9 655.5 331.3 653.1 327.8 650.4H344.4L351.9 670.9L359.4 650.4H373.1L353.5 698.1H339.9L343.4 689.6H343.3ZM381.3 661.7C382.7 657.8 381.7 653.5 378.8 650.7L378.5 650.4H399.6L417 698.1H403L399.6 688.8H387.1C386.3 688.8 385.5 689.3 385.2 690.2L382.3 698.2H368.3L381.5 661.9L381.3 661.7ZM396.1 679.5C394.7 675.8 393.9 673.3 392.6 669.6C391.2 673.3 390.3 675.8 389.1 679.5H396.2H396.1ZM424.4 664C424.4 657.9 422.8 655.8 417.4 650.4H434.8L452.5 670.9V650.4H466.6V698.1C462.1 698.1 457.9 695.2 451.7 688.1L438.5 672.9V698.1H424.4V664ZM486.2 661.7C487.6 657.8 486.6 653.5 483.7 650.7L483.4 650.4H504.5L521.9 698.1H507.9L504.5 688.8H492C491.2 688.8 490.4 689.3 490.1 690.2L487.2 698.2H473.2L486.4 661.9L486.2 661.7ZM500.9 679.5C499.5 675.8 498.7 673.3 497.4 669.6C496 673.3 495.1 675.8 493.9 679.5H501H500.9Z" fill="url(#paint0_linear_8_95)"/>
<g filter="url(#filter0_d_8_95)">
<path d="M649.9 249.6L615.4 252C613.1 252.1 610.8 252.2 608.4 252.3C611.5 215.5 611.2 181.6 610.9 153.9C610.9 146.8 610.8 140 610.8 133.7V131.5L609.9 129.5C608.6 126.4 605.8 120 576.2 105.3C558.3 96.3999 535 86.6999 510.8 78.0999C425.7 47.8999 369.6 43.3999 343.7 43.3999C317.8 43.3999 259.7 49.6999 186.3 79.8999C144.3 97.1999 103 120 90.2 132.9L87.4999 135.7L87.2 139.6C84.6 177 84.9999 213.3 88.2999 247.7C84.7999 247.4 81.8 247.1 79.2 246.9L43.7 243.5L64.7999 268C64.7999 268 73.4 276.4 73.4 294.7C73.4 297.3 73.2999 300.1 73.2999 303.4V332.2C73.2999 344.4 74.3999 353.8 76.5999 360.9C79.8999 371.6 87 379.9 96.9 384.9C103.3 388.1 110.8 389.8 119.1 389.8C127.4 389.8 121.4 389.8 122.6 389.8C138.4 428.4 159.3 464 184.8 495.9C206.5 523 231.6 547.5 259.4 568.5C306.8 604.5 345.4 618 347 618.6L351.1 620L355 618.1C415.5 589.1 465.9 552.5 504.7 509.4C536.2 474.5 560.8 434.3 578.1 390C578.7 390 579.4 390 580 390C586.7 390 593 388.8 598.6 386.5C607.7 382.7 614.5 376.5 618.3 368.4C621.3 362.1 622.7 354.3 622.7 344C622.7 333.7 622.7 339.4 622.5 337.3V336.8C622.3 334.2 622 331.7 621.6 329.4C621.3 325.5 621 321 620.9 316V300.1C620.9 299.3 620.9 298.5 620.9 297.8C620.9 281.3 628.1 273.4 629 272.5C629.2 272.4 629.4 272.3 629.5 272.3C629.3 272.3 629.1 272.4 629.1 272.4L649.9 249.7V249.6Z" fill="white"/>
<path d="M350.8 601.5C350.8 601.5 79.8998 507.8 105 146C124.1 126.6 246.4 61.8999 344.3 61.8999C442.2 61.8999 587.5 124.6 593.8 139.4C593.8 248 611.7 476.2 350.8 601.4V601.5Z" fill="url(#paint1_linear_8_95)"/>
<path d="M600.7 134.2C594.2 119 444.9 54.5 344.3 54.5C243.7 54.5 117.9 121 98.2999 140.9C72.5999 512.7 350.9 609 350.9 609C619.1 480.4 600.7 245.8 600.7 134.2ZM560.9 376.6C544.4 421.1 520.1 461.3 488.7 496C452.7 535.7 406.2 569.7 350.4 597.1C334.8 590.8 276.9 564.7 222.1 506.1C184.8 466.2 156.1 419.2 136.8 366.4C113.1 301.4 103.7 227.2 108.8 145.9C120.1 136.7 151.8 117.9 195 100.2C265.1 71.3 314.9 65.3 344.3 65.3C373.7 65.3 419.9 69.4 499.6 97.2C550.8 115 582 131.7 589.9 138.1C589.9 143.3 589.9 148.8 590 154.5C590.5 213.7 591.2 294.7 560.9 376.6Z" fill="url(#paint2_linear_8_95)"/>
<path d="M308.7 512.9L311 502L313.4 512.9L324.5 511.7L314.9 517.4L319.5 527.6L311.1 520.2L302.8 527.7L307.2 517.5L297.5 512L308.6 513L308.7 512.9ZM393.4 512.9L395.7 502L398.1 512.9L409.2 511.7L399.6 517.4L404.2 527.6L395.8 520.2L387.5 527.7L391.9 517.5L382.2 512L393.3 513L393.4 512.9ZM350.4 531.6L353.3 517.7L356.4 531.5L370.5 530L358.3 537.2L364.1 550.1L353.5 540.7L343 550.2L348.6 537.2L336.3 530.2L350.4 531.5V531.6Z" fill="url(#paint3_linear_8_95)"/>
<path d="M626.9 262.5C602.7 263.7 579.2 264.8 556.3 265.6C409.7 275.4 288.5 271.3 211.3 266C119.2 262.4 67.7998 256.9 67.7998 256.9C67.7998 256.9 85.4998 262.7 84.5998 290.7C84.3998 294.3 84.1998 298.6 84.1998 303.9V332.7C84.1998 343.8 85.0998 352.2 86.9998 358.2C89.4998 366.1 94.6998 372.2 102 375.9C107 378.4 112.8 379.6 119.5 379.6C126.2 379.6 123.1 379.6 125 379.3C126.7 379.1 128.4 378.9 130 378.6C340 360.1 526.7 374.8 570.7 378.8C572.4 379.1 574.1 379.4 575.8 379.5C577.4 379.6 578.9 379.7 580.4 379.7C585.7 379.7 590.6 378.8 595 377C601.7 374.2 606.5 369.9 609.2 364.1C611.5 359.3 612.6 352.9 612.6 344.2C612.6 335.5 612.6 340.1 612.4 338.2C612.2 335.6 611.9 333.2 611.5 330.9C611.1 326.2 610.8 321 610.7 315.9V300.3C610.7 299.3 610.7 298.4 610.7 297.5C610.8 290 611.1 284.8 611.1 284.8C613.9 265.7 626.8 262.4 626.8 262.4L626.9 262.5Z" fill="url(#paint4_linear_8_95)"/>
<path d="M151.9 312.7V304.3C151.9 296 151.2 289.9 149.8 285.8C148.4 281.8 145.4 278.3 140.8 275.2C136.2 272.2 130.5 270.3 123.5 269.7C118.3 269.2 113.8 269.7 109.8 271.2C105.8 272.7 102.7 275 100.5 278C98.2998 281.1 96.8998 284.4 96.4998 287.9C95.9998 291.4 95.7998 296.8 95.7998 303.9V332.7C95.7998 342.4 96.4998 349.6 97.9998 354.3C99.4998 359 102.5 362.5 107 364.7C111.5 367 117.2 367.7 124.2 367.1C130.9 366.5 136.5 364.5 141.1 361.2C145.7 357.9 148.6 354.3 150 350.4C151.3 346.5 152 339.9 152 330.7V327.2C142.5 327.3 137.7 327.4 128.2 327.6V339.3C128.2 344.4 127.9 347.6 127.4 349.1C126.9 350.5 125.7 351.3 123.9 351.4C122.1 351.5 120.9 350.9 120.3 349.5C119.8 348.1 119.5 345.2 119.5 340.6C119.5 326 119.5 311.4 119.5 296.8C119.5 292 119.8 288.9 120.3 287.5C120.8 286.1 122.1 285.5 124 285.6C125.7 285.7 126.8 286.4 127.4 287.6C127.9 288.8 128.2 291.7 128.2 296.4V312.5C137.7 312.6 142.5 312.7 152 312.7H151.9Z" fill="white"/>
<path d="M210.8 283.7C202 283.3 197.6 283.1 188.7 282.6C188.7 293.7 188.7 299.3 188.7 310.4C186.1 310.4 184.7 310.4 182.1 310.4C182.1 299.2 182.1 293.5 182.1 282.3C173.3 281.8 168.9 281.6 160.1 281C160.1 308.1 160.1 335.2 160.1 362.4C168.9 361.8 173.3 361.5 182.1 360.9C182.1 347.7 182.1 341.1 182.1 327.9C184.7 327.9 186.1 327.9 188.7 327.9C188.7 341 188.7 347.5 188.7 360.6C197.5 360.1 201.9 359.8 210.8 359.3C210.8 334.2 210.8 309 210.8 283.9V283.7Z" fill="white"/>
<path d="M257.8 285.5C245 285.1 238.7 284.9 225.9 284.4C222.1 309.3 218.3 334.1 214.6 359C223.7 358.5 228.3 358.3 237.4 357.9C237.9 352.6 238.2 350 238.7 344.7C241.9 344.7 243.4 344.6 246.6 344.5C247.1 349.7 247.3 352.3 247.8 357.5C256.8 357.1 261.3 357 270.4 356.7C266.1 333 261.9 309.3 257.8 285.5ZM246.1 331.7C243.1 331.7 241.5 331.7 238.5 331.8C239.1 325.3 240.5 315.1 242.7 301.2C243.8 313.3 244.9 323.5 246.1 331.7Z" fill="white"/>
<path d="M342.3 286.8C330.8 286.8 325.1 286.8 313.6 286.6C311.6 299.5 310.6 305.9 308.5 318.9C307.2 311.9 306.6 308.3 305.4 301.3C304.5 295.6 303.6 290.7 302.8 286.5C291.4 286.3 285.7 286.2 274.2 285.9C274.2 309.4 274.2 333 274.2 356.5C281.9 356.3 285.8 356.2 293.5 356C293.5 340.7 293.5 325.3 293.5 310C296.2 325.3 298.9 340.6 301.6 355.8C307.1 355.8 309.8 355.7 315.3 355.6C317.9 340.1 320.4 324.5 323 309C323 324.5 323 340 323 355.5C330.7 355.5 334.6 355.5 342.3 355.4C342.3 332.5 342.3 309.6 342.3 286.7V286.8Z" fill="white"/>
<path d="M351.1 286.8C351.1 309.7 351.1 332.6 351.1 355.4C359.9 355.4 364.4 355.4 373.2 355.5C373.2 344.4 373.2 338.9 373.2 327.8C375.6 327.8 376.8 327.8 379.1 327.8C383.9 327.8 387.8 327.3 390.8 326.2C393.8 325.1 395.8 323.6 397 321.5C398.1 319.5 398.7 316.2 398.7 311.8C398.7 309.4 398.7 308.2 398.7 305.7C398.7 301.3 398.4 298.1 397.8 296.1C397.2 294.1 396.1 292.3 394.5 290.8C392.9 289.4 390.4 288.3 387.2 287.6C384 286.9 379.3 286.5 373.3 286.6C364.4 286.6 360 286.6 351.1 286.7V286.8ZM373.2 298.5C376.1 298.5 378 298.8 378.9 299.5C379.8 300.2 380.3 301.7 380.3 304.1C380.3 306.4 380.3 307.5 380.3 309.8C380.3 312.1 379.9 314 379.1 314.9C378.3 315.7 376.9 316.1 374.9 316.1C374.4 316.1 373.9 316.1 373.3 316.1C373.3 309.1 373.3 305.6 373.3 298.6L373.2 298.5Z" fill="white"/>
<path d="M427.1 285.8C418.3 286 413.9 286.1 405 286.3C405 309.6 405 332.8 405 356.1C413.8 356.3 418.2 356.4 427.1 356.7C427.1 333.1 427.1 309.5 427.1 285.8Z" fill="white"/>
<path d="M486.4 327.9C486.4 322.7 486.4 320.2 486.4 315C486.4 307.2 486.2 301.8 485.8 298.7C485.4 295.6 484.1 292.8 481.9 290.2C479.7 287.7 476.8 285.8 473.2 284.7C469.6 283.5 465.5 283.1 461 283.3C456.2 283.5 452 284.3 448.4 285.8C444.8 287.3 441.9 289.2 439.8 291.8C437.7 294.3 436.4 297.1 436 300.1C435.6 303.1 435.4 308.2 435.4 315.3C435.4 320.2 435.4 322.6 435.4 327.5C435.4 334.8 435.6 340 436 342.9C436.4 345.8 437.7 348.6 439.9 351.2C442.1 353.8 445 355.8 448.6 357.2C452.2 358.6 456.3 359.4 460.8 359.6C465.6 359.8 469.8 359.3 473.4 358.1C477 356.9 479.9 355 482 352.5C484.1 350 485.4 347.2 485.8 344C486.2 340.9 486.4 335.5 486.4 327.9ZM464.4 303.5C464.4 317 464.4 323.8 464.4 337.3C464.4 341.6 464.2 344.4 463.8 345.5C463.4 346.6 462.4 347.2 460.9 347.1C459.4 347.1 458.5 346.5 458.1 345.5C457.7 344.5 457.5 341.9 457.5 337.6C457.5 324 457.5 317.2 457.5 303.6C457.5 299.8 457.8 297.6 458.4 296.8C459 296 459.9 295.6 461 295.6C462.4 295.6 463.3 296 463.7 297C464.1 297.9 464.4 300.1 464.4 303.5Z" fill="white"/>
<path d="M543.9 280.5C536.5 281 532.8 281.2 525.5 281.6C525.5 296 525.5 303.2 525.5 317.6C520.6 303.2 518.1 296.2 513.1 282.3C505.7 282.7 502 282.9 494.7 283.2C494.7 308.6 494.7 334.1 494.7 359.5C502.1 359.9 505.8 360.1 513.1 360.6C513.1 346.4 513.1 339.2 513.1 325C517.7 339.3 520 346.6 524.6 361.4C532.3 361.9 536.2 362.2 543.9 362.8C543.9 335.4 543.9 307.9 543.9 280.5Z" fill="white"/>
<path d="M599.4 304V300.4C599.4 293.2 598.7 288 597.4 285.1C596.1 282.2 593.4 279.9 589.4 278.2C585.4 276.6 580.5 276 574.8 276.5C569.6 276.9 565.1 278.1 561.4 280.1C557.7 282.1 555 284.5 553.4 287.6C551.7 290.7 550.9 295.4 550.9 301.7C550.9 306.1 551.5 309.7 552.7 312.6C553.9 315.4 555.3 317.7 557.1 319.3C558.9 320.9 562.5 323.6 568 327.3C573.5 331 576.9 333.8 578.3 335.4C579.7 337 580.3 340.4 580.3 345.6C580.3 348 579.9 349.7 579.2 350.9C578.5 352 577.4 352.6 575.9 352.5C574.4 352.5 573.4 351.9 572.8 350.9C572.2 349.9 571.9 347.8 571.9 344.6C571.9 340.4 571.9 338.3 571.9 334.1C563.7 333.9 559.6 333.7 551.4 333.5V339C551.4 345.3 552 350.1 553.3 353.6C554.6 357.1 557.3 360.1 561.5 362.7C565.7 365.3 570.7 366.9 576.6 367.4C582 367.9 586.7 367.4 590.7 365.7C594.7 364 597.5 361.7 598.9 358.7C600.3 355.7 601 351 601 344.4C601 335.4 599.7 328.9 597.2 324.8C594.7 320.8 588.5 315.6 578.7 309.7C575.3 307.7 573.2 305.9 572.5 304.5C571.8 303.1 571.4 300.9 571.4 298C571.4 295.8 571.7 294.1 572.4 292.9C573.1 291.8 574.1 291.2 575.4 291.1C576.6 291.1 577.5 291.4 578 292.2C578.5 293 578.8 294.9 578.8 298C578.8 300.6 578.8 301.9 578.8 304.5C587 304.3 591.1 304.2 599.2 303.9L599.4 304Z" fill="white"/>
<path d="M311.1 320.1H305.8C305.8 320.1 305.8 320.1 305.8 320.2H311.1V320.1Z" fill="url(#paint5_linear_8_95)"/>
<path d="M98.3997 333.5C98.3997 342.8 99.0997 349.8 100.5 354.1C101.7 358.1 104.2 360.9 108 362.8C111.1 364.3 115 365.1 119.5 365.1C124 365.1 122.3 365.1 123.8 364.9C130 364.3 135.2 362.5 139.4 359.5C143.5 356.6 146.1 353.4 147.2 350.1C148.4 346.5 149 340.2 149 331.4V330.9C142.1 331 137.6 331.1 130.6 331.2V340C130.6 347.3 130.1 349.6 129.6 350.9C129.1 352.3 127.6 354.7 123.8 355C123.6 355 123.4 355 123.2 355C119.5 355 118.1 352.7 117.6 351.3C117.1 350.1 116.6 347.9 116.6 341.3V320H98.1997V333.5H98.3997Z" fill="url(#paint6_linear_8_95)"/>
<path d="M162.7 360C168.9 359.5 173 359.3 179.4 358.9V325.8L191.4 325.6V358.1C197.6 357.7 201.7 357.5 208.1 357.1V320H162.8V359.9L162.7 360Z" fill="url(#paint7_linear_8_95)"/>
<path d="M248.7 332L249.1 335.3L235.4 335.5L235.7 332.3C236 329.1 236.5 325 237.1 320.1H223.1C221.3 331.9 219.5 344.1 217.6 356.7C224 356.4 228.2 356.2 234.8 355.9L236.1 342.7H238.4C241.6 342.5 243.1 342.5 246.3 342.4H248.8L250 355.3C256.4 355.1 260.6 354.9 266.9 354.7C264.9 343.4 262.8 331.9 260.7 320.1H247C247.5 324.5 248 328.5 248.5 332H248.7Z" fill="url(#paint8_linear_8_95)"/>
<path d="M325.7 353.4C330.9 353.4 334.4 353.4 339.6 353.4V320.1H325.7V353.5V353.4Z" fill="url(#paint9_linear_8_95)"/>
<path d="M311.1 320.1H305.8H297.8C299.8 331.3 301.8 342.5 303.8 353.8C307.2 353.8 309.6 353.8 313 353.7C314.8 342.5 316.7 331.3 318.5 320.2H311.1V320.1Z" fill="url(#paint10_linear_8_95)"/>
<path d="M276.8 354.3C282 354.2 285.5 354.1 290.7 354V320.1H276.8V354.4V354.3Z" fill="url(#paint11_linear_8_95)"/>
<path d="M353.8 353.3C360.1 353.3 364.2 353.3 370.5 353.3V325.6H379.3C383.7 325.6 387.3 325.1 390 324.2C392.3 323.4 393.9 322.2 394.7 320.8C394.8 320.6 395 320.3 395.1 319.9H353.8V353.2V353.3Z" fill="url(#paint12_linear_8_95)"/>
<path d="M407.7 354C414 354.1 418.1 354.2 424.4 354.4C424.4 342.9 424.4 331.5 424.4 320H407.7V354Z" fill="url(#paint13_linear_8_95)"/>
<path d="M467.1 338C467.1 344.2 466.7 346.2 466.3 347.3C465.5 349.5 463.6 350.8 461.1 350.8C458.6 350.8 460.9 350.8 460.8 350.8C457.4 350.7 456.1 348.7 455.6 347.5C455.2 346.5 454.8 344.6 454.8 338.5V320.1H438.1V328.2C438.1 335.4 438.3 340.4 438.7 343.2C439 345.6 440.1 347.8 441.9 349.9C443.8 352.1 446.4 353.9 449.6 355.1C453 356.4 456.8 357.2 461 357.3C461.7 357.3 462.4 357.3 463.1 357.3C466.7 357.3 469.9 356.8 472.7 355.9C475.8 354.9 478.3 353.3 480.1 351.2C481.9 349.1 482.9 346.9 483.2 344.3C483.6 341.3 483.8 336 483.8 328.6V320H467.1V338Z" fill="url(#paint14_linear_8_95)"/>
<path d="M497.3 357.6C502.2 357.9 505.5 358.1 510.4 358.4V325.9L515.6 325C520.1 339 522.3 346.1 526.5 359.5C532.2 359.9 535.8 360.1 541.2 360.5V320.1H497.3V357.7V357.6Z" fill="url(#paint15_linear_8_95)"/>
<path d="M587.9 320H561.4C563.3 321.4 565.9 323.3 569.3 325.6C575 329.5 578.6 332.3 580.2 334.2C582.1 336.4 582.9 340.3 582.9 346.4C582.9 352.5 582.4 351.6 581.4 353.3C580.2 355.2 578.4 356.2 576.2 356.2C574 356.2 575.9 356.2 575.7 356.2C572.8 356 571.3 354.5 570.5 353.3C569.6 351.8 569.2 349.4 569.2 345.4V337.7C563.5 337.5 559.8 337.4 554.1 337.3V339.8C554.1 345.6 554.7 350.2 555.8 353.3C556.8 356.1 559.2 358.7 562.8 360.9C566.6 363.3 571.4 364.7 576.8 365.2C578 365.3 579.1 365.4 580.2 365.4C583.8 365.4 587 364.8 589.7 363.7C593.1 362.3 595.4 360.4 596.5 358.1C597.3 356.4 598.3 352.7 598.3 345.2C598.3 336.8 597.2 330.8 594.9 327.3C594 325.9 592.1 323.5 587.7 320.1L587.9 320Z" fill="url(#paint16_linear_8_95)"/>
<path d="M215.4 168.3C209.9 183.7 207.2 191.4 201.6 206.8C206.8 225.8 209.4 235.3 214.7 254.2C205.3 254 200.7 253.9 191.3 253.6C188 238.8 186.4 231.4 183.1 216.6C182.7 231.3 182.5 238.7 182.1 253.4C173 253.1 168.5 253 159.5 252.7C160.4 224.1 161.3 195.5 162.2 166.9C171.1 167.2 175.6 167.3 184.5 167.6C184.1 180.9 183.9 187.6 183.6 200.9C188 187.7 190.1 181.1 194.5 167.8C202.9 168 207.1 168.1 215.4 168.3Z" fill="white"/>
<path d="M261.2 169.2C265 197.9 268.9 226.6 272.9 255.2C263.6 255.1 259 255 249.8 254.9C249.4 248.7 249.2 245.6 248.8 239.4C245.6 239.4 244 239.4 240.7 239.3C240 245.5 239.7 248.5 239.1 254.7C229.7 254.5 225.1 254.4 215.7 254.2C220.2 225.7 224.6 197.1 229 168.6C241.9 168.9 248.4 169 261.3 169.2H261.2ZM248.5 224.2C247.5 214.5 246.6 202.4 245.7 188.1C243.1 204.5 241.5 216.5 240.8 224.1C243.9 224.1 245.5 224.1 248.6 224.2H248.5Z" fill="white"/>
<path d="M277.8 169.4C286.7 169.5 291.2 169.6 300.1 169.6C307.1 169.6 312.5 170.2 316.1 171.4C319.7 172.5 322.6 174.7 324.9 178.1C327.1 181.4 328.2 186.8 328.2 194.3C328.2 199.3 327.4 202.8 325.8 204.8C324.2 206.8 321.1 208.3 316.4 209.3C321.6 210.5 325.1 212.4 326.9 215.2C328.7 217.9 329.7 222.1 329.6 227.7C329.6 230.9 329.6 232.5 329.6 235.7C329.6 241.5 328.9 245.8 327.5 248.6C326.1 251.4 324 253.3 321.1 254.3C318.2 255.3 312.1 255.8 303 255.7C292.5 255.7 287.3 255.6 276.8 255.4C277.1 226.8 277.5 198.2 277.8 169.5V169.4ZM300 184.3C300 191.9 300 195.8 299.8 203.4C300.8 203.4 301.5 203.4 302 203.4C304.2 203.4 305.6 202.9 306.2 201.8C306.8 200.7 307.1 197.6 307.2 192.6C307.2 189.9 307 188 306.5 186.9C306 185.8 305.4 185.1 304.6 184.8C303.8 184.5 302.3 184.3 300 184.3ZM299.7 216.8C299.7 226.4 299.6 231.2 299.5 240.8C302.7 240.8 304.7 240.2 305.6 239.4C306.5 238.5 306.9 236.4 307 232.9C307 229.7 307 228.1 307 224.9C307 221.2 306.6 219 305.9 218.2C305.1 217.4 303.1 217 299.7 216.8Z" fill="white"/>
<path d="M376.4 169.8C380.8 198.4 385.2 227 389.8 255.6C380.5 255.6 375.9 255.6 366.7 255.7C366.2 249.5 365.9 246.4 365.4 240.3C362.2 240.3 360.6 240.3 357.3 240.3C356.8 246.5 356.5 249.6 356 255.7C346.6 255.7 341.9 255.7 332.6 255.7C336.5 227.1 340.4 198.5 344.2 169.9C357.1 169.9 363.6 169.9 376.5 169.9L376.4 169.8ZM364.7 225C363.5 215.3 362.4 203.3 361.2 188.9C359 205.3 357.5 217.4 357 225C360.1 225 361.7 225 364.8 225H364.7Z" fill="white"/>
<path d="M392.9 169.7C399.6 169.7 402.9 169.7 409.6 169.6C420.4 169.5 427.7 169.9 431.5 170.8C435.3 171.7 438.2 173.3 440.2 175.6C442.2 177.8 443.5 180.3 444 183.1C444.5 185.9 444.9 191.3 445 199.4C445.2 211.4 445.3 217.4 445.5 229.5C445.6 237.2 445.3 242.4 444.6 245C443.9 247.6 442.7 249.7 440.9 251.2C439.1 252.7 436.9 253.8 434.2 254.4C431.5 255 427.5 255.4 422.1 255.4C410.7 255.5 405 255.6 393.5 255.7C393.3 227.1 393.1 198.5 392.9 169.8V169.7ZM415.4 184.1C415.6 202.9 415.8 221.7 416 240.6C419.3 240.6 421.3 239.9 422 238.6C422.7 237.3 423.1 233.8 423 228.1C422.8 214.8 422.8 208.1 422.6 194.7C422.6 190.8 422.4 188.3 422.1 187.2C421.8 186.1 421.3 185.3 420.4 184.8C419.5 184.3 417.8 184.1 415.4 184.1Z" fill="white"/>
<path d="M453 168.9C459.7 168.8 463 168.7 469.7 168.6C480.5 168.4 487.8 168.7 491.6 169.6C495.4 170.5 498.4 172.1 500.4 174.3C502.4 176.5 503.7 179 504.3 181.8C504.9 184.6 505.3 190 505.5 198.1C505.8 210.1 506 216.1 506.3 228.2C506.5 235.9 506.3 241.1 505.6 243.7C504.9 246.3 503.7 248.4 501.9 249.9C500.1 251.4 497.9 252.5 495.2 253.1C492.5 253.7 488.5 254.1 483.1 254.3C471.7 254.6 466 254.7 454.5 254.9C454 226.3 453.5 197.7 453 169.1V168.9ZM475.6 183.2C476 202 476.4 220.8 476.8 239.7C480.1 239.7 482 238.9 482.8 237.6C483.5 236.3 483.8 232.8 483.7 227.1C483.4 213.8 483.2 207.1 482.9 193.8C482.9 189.9 482.6 187.4 482.4 186.3C482.1 185.2 481.5 184.4 480.6 183.9C479.7 183.4 478 183.2 475.6 183.2Z" fill="white"/>
<path d="M535.3 166.9C536.2 195.5 537.1 224.1 538 252.7C528.9 253 524.4 253.1 515.4 253.4C514.6 224.8 513.8 196.2 513 167.6C521.9 167.4 526.4 167.2 535.3 166.9Z" fill="white"/>
<path d="M164.1 218.2H179.6L178.7 249.2C172.9 249 168.9 248.9 163.1 248.7L164.1 218.2ZM194.2 249.6C200.3 249.8 204.4 249.9 210.1 250C206.7 237.6 204.4 229.3 201.3 218.2H187.3C190 230.4 191.5 237.5 194.2 249.6ZM252 223.2L252.4 227.1H248.4C245.3 227 243.7 227 240.6 226.9H236.8L237.2 223C237.3 221.5 237.5 219.9 237.7 218H224.7C223.1 228.4 221.4 239 219.7 250C225.6 250.1 229.8 250.2 235.8 250.3L237.4 234.9H240.6C243.8 235 245.4 235 248.7 235.1H252L253 250.6C258.9 250.6 263 250.8 268.8 250.8C267.3 240 265.8 229.1 264.3 217.9H251.4C251.6 219.7 251.7 221.4 251.9 223L252 223.2ZM310.6 224.3V232.3C310.6 237 309.8 239.6 308.1 241.3C306.5 242.9 303.9 243.7 299.6 243.8H296L296.2 218.2H280.7L280.3 251.2C288.5 251.2 293.6 251.3 303 251.4C303.6 251.4 304.1 251.4 304.6 251.4C314.7 251.4 318.5 250.6 319.9 250.2C322 249.5 323.4 248.2 324.3 246.3C325.1 244.7 326 241.5 326 234.9V226.9C326 223.2 325.6 220.3 324.8 218.1H310C310.4 219.6 310.6 221.6 310.5 224.2L310.6 224.3ZM368.2 224L368.7 227.9H364.7C361.6 227.9 353.1 227.9 353.1 227.9L353.4 224.1C353.5 222.3 353.7 220.3 353.9 218.1H341C339.5 229 338 240.1 336.4 251.5C340.4 251.5 343.7 251.5 347.3 251.5C350.9 251.5 350.7 251.5 352.6 251.5L353.9 236.1H357.1C360.3 236.1 361.9 236.1 365.2 236.1H368.5L369.8 251.5C375.7 251.5 379.8 251.5 385.6 251.5C383.9 240.6 382.1 229.5 380.4 218.2H367.5C367.7 220.2 367.9 222.2 368.2 224ZM426.6 227.4C426.7 235.8 426 238.3 425.1 239.7C423 243.4 417.8 243.5 416.1 243.5H412.6L412.3 218.1H396.8L397 251.3C406.3 251.3 411.8 251.2 422 251C427.1 251 431 250.6 433.4 250.1C435.5 249.6 437.3 248.8 438.7 247.6C439.9 246.6 440.8 245.2 441.3 243.3C441.7 241.7 442.2 237.9 442 228.8L441.8 218.1H426.3V227.4H426.6ZM487.2 226.3C487.4 234.7 486.7 237.2 485.9 238.6C483.8 242.3 478.6 242.4 476.9 242.5H473.4L472.9 218.1H457.4L458 250.5C467.3 250.3 472.8 250.2 483 250C488.1 249.9 492 249.5 494.4 248.9C496.5 248.4 498.3 247.5 499.7 246.4C500.9 245.4 501.8 243.9 502.2 242C502.6 240.4 503 236.6 502.8 227.5L502.6 218.1H487.1L487.3 226.3H487.2ZM517.9 218.2L518.8 249.2C524.6 249 528.6 248.9 534.4 248.7C534.2 241.2 533.8 229.9 533.4 218.2H517.9Z" fill="url(#paint17_linear_8_95)"/>
<path d="M243.4 391.2C243.4 409.5 243.4 427.8 243.4 446.1C247.7 445.9 249.9 445.8 254.2 445.7C254.2 451.2 254.2 453.9 254.2 459.4C244.6 459.7 235.1 460.1 225.5 460.6V392C232.6 391.7 236.2 391.5 243.3 391.2H243.4ZM260.3 390.6C270.2 390.3 280.1 390 290.1 389.8C290.1 395.3 290.1 398 290.1 403.5C285.3 403.6 283 403.7 278.2 403.8C278.2 409 278.2 411.6 278.2 416.8C282.7 416.7 284.9 416.6 289.3 416.5V429.6C284.8 429.7 282.6 429.8 278.2 429.9C278.2 435.9 278.2 439 278.2 445C283.4 444.9 286.1 444.8 291.3 444.7C291.3 450.2 291.3 452.9 291.3 458.4C281 458.6 270.7 458.9 260.4 459.3C260.4 436.4 260.4 413.5 260.4 390.7L260.3 390.6ZM329 389.2C332.4 412.1 335.8 434.9 339.2 457.8C331.9 457.8 328.3 457.8 321 457.9C320.6 453 320.4 450.5 320 445.6C317.4 445.6 316.2 445.6 313.6 445.6C313.2 450.5 313 453 312.5 458C305.1 458.1 301.4 458.2 294 458.3C297 435.4 300.1 412.4 303.1 389.5C311.7 389.3 320.3 389.2 328.9 389.2H329ZM319.5 433.4C318.4 423.8 317.5 414.2 316.8 404.6C315.5 414.2 314.2 423.8 313.4 433.5C315.9 433.5 317.1 433.5 319.5 433.5V433.4ZM384.9 414.6C377.8 414.6 374.2 414.5 367 414.4V408.2C367 404.3 366.8 401.8 366.5 400.8C366.2 399.8 365.4 399.3 364.1 399.3C363 399.3 362.2 399.7 361.9 400.6C361.6 401.5 361.3 403.6 361.3 407.1C361.3 418.1 361.3 429.1 361.3 440C361.3 443.1 361.5 445.1 361.9 446.1C362.3 447.1 363.1 447.6 364.3 447.6C365.6 447.6 366.5 447.1 367 446C367.5 444.9 367.7 442.8 367.7 439.6C367.7 436.4 367.7 434.7 367.7 431.5C366.3 431.5 365.5 431.5 364.1 431.5V421.1C372.5 421.1 376.6 421.1 385 421.3V458.1C380.5 458.1 378.3 458.1 373.8 458C373.1 456 372.8 455 372.1 453.1C370.9 455.2 369.3 456.8 367.5 457.8C365.6 458.8 363.5 459.4 360.9 459.4C357.9 459.4 355.1 458.7 352.5 457.2C349.9 455.7 347.9 453.9 346.5 451.8C345.1 449.7 344.3 447.4 344 445C343.7 442.6 343.5 439.1 343.5 434.4C343.5 426.2 343.5 422.2 343.5 414C343.5 407.4 343.9 402.7 344.6 399.7C345.3 396.7 347.3 394 350.7 391.5C354.1 389 358.4 387.8 363.7 387.8C368.9 387.8 373.3 388.9 376.7 391.1C380.1 393.3 382.4 395.9 383.4 398.8C384.4 401.8 385 406.1 385 411.7V414.7L384.9 414.6ZM434.1 390.4C434.1 405.7 434.1 421 434.1 436.3C434.1 451.6 433.9 445.1 433.6 447.2C433.3 449.3 432.3 451.4 430.6 453.6C428.9 455.8 426.7 457.4 424 458.5C421.3 459.6 418.1 460.1 414.4 460C410.3 459.9 406.7 459.1 403.5 457.7C400.4 456.3 398 454.5 396.5 452.3C394.9 450.1 394 447.8 393.7 445.4C393.4 443 393.3 437.9 393.3 430.2C393.3 416.7 393.3 403.1 393.3 389.6C400.4 389.7 404 389.8 411.1 390C411.1 407.2 411.1 424.3 411.1 441.5C411.1 458.7 411.3 446.4 411.6 447.3C411.9 448.1 412.6 448.6 413.6 448.6C414.7 448.6 415.5 448.2 415.8 447.3C416.1 446.4 416.3 444.2 416.3 440.8C416.3 423.9 416.3 407.1 416.3 390.2C423.4 390.4 427 390.5 434.1 390.7V390.4ZM442.8 390.7C452.7 391.1 462.6 391.5 472.5 391.9C472.5 397.4 472.5 400.1 472.5 405.6C467.7 405.4 465.4 405.3 460.6 405.1C460.6 410.3 460.6 412.9 460.6 418.1C465.1 418.3 467.3 418.4 471.7 418.6C471.7 423.8 471.7 426.4 471.7 431.7C467.2 431.5 465 431.4 460.6 431.2C460.6 437.2 460.6 440.3 460.6 446.3C465.8 446.5 468.5 446.6 473.7 446.9C473.7 452.4 473.7 455.1 473.7 460.6C463.4 460.1 453.1 459.7 442.8 459.3C442.8 436.4 442.8 413.5 442.8 390.7Z" fill="white"/>
<path d="M415.1 456.9C414.8 456.9 414.6 456.9 414.3 456.9C410.6 456.9 407.3 456.1 404.5 454.9C401.8 453.7 399.9 452.2 398.6 450.4C397.3 448.6 396.6 446.7 396.3 444.8C396 442.5 395.9 437.5 395.9 429.9V427.2H408.1V441.2C408.1 445.6 408.4 447.1 408.8 448C409.5 449.9 411.2 451 413.3 451.1H413.5C415.8 451.1 417.5 449.9 418.2 447.9C418.5 447 418.9 445.4 418.9 440.5V427.3H431.1V436.3C431.1 441.3 430.9 444.9 430.6 446.8C430.3 448.4 429.5 450.1 428.1 451.9C426.7 453.7 425 455 422.7 455.8C420.5 456.6 417.9 457.1 414.9 457.1L415.1 456.9ZM297.2 455.2C301.7 455.2 305 455.1 309.8 455L310.9 442.6H313.5C316.1 442.6 317.3 442.6 319.9 442.5H322.5L323.5 454.8C328.1 454.8 331.3 454.8 335.9 454.8L331.8 427.2H321.7C321.9 429.3 322.1 431.2 322.3 432.9L322.7 436H319.6C317.1 436 315.9 436 313.5 436.1H310.4L310.7 433C310.9 431.1 311 429.2 311.3 427.1H301.2L297.5 455.2H297.2ZM263 456.1C271.4 455.8 279.9 455.6 288.3 455.4V447.3C284.8 447.3 282.3 447.4 278.1 447.6H275.2V427.1H263V456.1ZM228.2 457.5C235.9 457.1 243.6 456.8 251.2 456.5V448.4C248.6 448.4 246.5 448.6 243.3 448.7H240.4C240.4 448.8 240.4 427.1 240.4 427.1H228.2V457.5ZM457.7 448.8V433.2V427H445.5V456.3C453.9 456.6 462.4 457 470.8 457.3V449.2C467.2 449 464.7 448.9 460.4 448.7H457.7V448.8ZM370.3 427.1V433.2V439.3C370.3 443 370 445.3 369.4 446.8C368.5 448.9 366.6 450.2 364.1 450.2C361.8 450.2 360 449 359.1 447C358.7 446.1 358.3 444.4 358.3 439.9V427.2H346.1V434.1C346.1 438.7 346.3 442.1 346.6 444.3C346.9 446.3 347.6 448.2 348.7 450C349.8 451.7 351.5 453.2 353.7 454.4C355.9 455.6 358.2 456.2 360.8 456.2C362.8 456.2 364.5 455.8 365.9 455C367.3 454.2 368.5 453 369.4 451.3L372.5 445.9L375.5 454.9C377.8 454.9 379.6 454.9 381.9 454.9V427.1H370.2H370.3Z" fill="url(#paint18_linear_8_95)"/>
</g>
<defs>
<filter id="filter0_d_8_95" x="0.699951" y="0.399902" width="706.2" height="676.6" filterUnits="userSpaceOnUse" color-interpolation-filters="sRGB">
<feFlood flood-opacity="0" result="BackgroundImageFix"/>
<feColorMatrix in="SourceAlpha" type="matrix" values="0 0 0 0 0 0 0 0 0 0 0 0 0 0 0 0 0 0 127 0" result="hardAlpha"/>
<feOffset dx="7" dy="7"/>
<feGaussianBlur stdDeviation="25"/>
<feColorMatrix type="matrix" values="0 0 0 0 0 0 0 0 0 0 0 0 0 0 0 0 0 0 0.5 0"/>
<feBlend mode="normal" in2="BackgroundImageFix" result="effect1_dropShadow_8_95"/>
<feBlend mode="normal" in="SourceGraphic" in2="effect1_dropShadow_8_95" result="shape"/>
</filter>
<linearGradient id="paint0_linear_8_95" x1="347.4" y1="642.4" x2="347.4" y2="700.8" gradientUnits="userSpaceOnUse">
<stop stop-color="#E8002F"/>
<stop offset="0.8" stop-color="#A8002C"/>
</linearGradient>
<linearGradient id="paint1_linear_8_95" x1="348.7" y1="92.6999" x2="348.7" y2="591.5" gradientUnits="userSpaceOnUse">
<stop stop-color="#1028A1"/>
<stop offset="0.2" stop-color="#122795"/>
<stop offset="0.3" stop-color="#192364"/>
<stop offset="0.4" stop-color="#1A2362"/>
<stop offset="0.6" stop-color="#162477"/>
<stop offset="0.7" stop-color="#13268C"/>
<stop offset="0.8" stop-color="#11289A"/>
<stop offset="0.9" stop-color="#1028A3"/>
<stop offset="1" stop-color="#1029A6"/>
</linearGradient>
<linearGradient id="paint2_linear_8_95" x1="96.5999" y1="331.8" x2="600.9" y2="331.8" gradientUnits="userSpaceOnUse">
<stop stop-color="#E5C25B"/>
<stop offset="0.1" stop-color="#F9DF7B"/>
<stop offset="0.3" stop-color="#FFF3A6"/>
<stop offset="0.4" stop-color="#F9DF7B"/>
<stop offset="0.5" stop-color="#B57E10"/>
<stop offset="0.6" stop-color="#F9DF7B"/>
<stop offset="0.7" stop-color="#FFF3A6"/>
<stop offset="0.8" stop-color="#F9DF7B"/>
<stop offset="1" stop-color="#B57E10"/>
</linearGradient>
<linearGradient id="paint3_linear_8_95" x1="297.5" y1="526.1" x2="409.2" y2="526.1" gradientUnits="userSpaceOnUse">
<stop stop-color="#FFE560"/>
<stop offset="0.3" stop-color="#F1C44E"/>
<stop offset="0.7" stop-color="#EBC449"/>
<stop offset="1" stop-color="#C89A2C"/>
</linearGradient>
<linearGradient id="paint4_linear_8_95" x1="347.4" y1="367.9" x2="347.4" y2="277.2" gradientUnits="userSpaceOnUse">
<stop offset="0.6" stop-color="#A8002C"/>
<stop offset="1" stop-color="#E8002F"/>
</linearGradient>
<linearGradient id="paint5_linear_8_95" x1="308.5" y1="366.417" x2="308.5" y2="328.903" gradientUnits="userSpaceOnUse">
<stop offset="0.7" stop-color="white"/>
<stop offset="1" stop-color="#C6C6C6"/>
</linearGradient>
<linearGradient id="paint6_linear_8_95" x1="123.8" y1="366.4" x2="123.8" y2="328.9" gradientUnits="userSpaceOnUse">
<stop offset="0.7" stop-color="white"/>
<stop offset="1" stop-color="#C6C6C6"/>
</linearGradient>
<linearGradient id="paint7_linear_8_95" x1="185.4" y1="366.4" x2="185.4" y2="328.9" gradientUnits="userSpaceOnUse">
<stop offset="0.7" stop-color="white"/>
<stop offset="1" stop-color="#C6C6C6"/>
</linearGradient>
<linearGradient id="paint8_linear_8_95" x1="242.5" y1="366.4" x2="242.5" y2="328.9" gradientUnits="userSpaceOnUse">
<stop offset="0.7" stop-color="white"/>
<stop offset="1" stop-color="#C6C6C6"/>
</linearGradient>
<linearGradient id="paint9_linear_8_95" x1="332.6" y1="366.4" x2="332.6" y2="328.9" gradientUnits="userSpaceOnUse">
<stop offset="0.7" stop-color="white"/>
<stop offset="1" stop-color="#C6C6C6"/>
</linearGradient>
<linearGradient id="paint10_linear_8_95" x1="308.2" y1="366.4" x2="308.2" y2="328.9" gradientUnits="userSpaceOnUse">
<stop offset="0.7" stop-color="white"/>
<stop offset="1" stop-color="#C6C6C6"/>
</linearGradient>
<linearGradient id="paint11_linear_8_95" x1="283.8" y1="366.4" x2="283.8" y2="328.9" gradientUnits="userSpaceOnUse">
<stop offset="0.7" stop-color="white"/>
<stop offset="1" stop-color="#C6C6C6"/>
</linearGradient>
<linearGradient id="paint12_linear_8_95" x1="374.5" y1="366.4" x2="374.5" y2="328.9" gradientUnits="userSpaceOnUse">
<stop offset="0.7" stop-color="white"/>
<stop offset="1" stop-color="#C6C6C6"/>
</linearGradient>
<linearGradient id="paint13_linear_8_95" x1="416.1" y1="366.4" x2="416.1" y2="328.9" gradientUnits="userSpaceOnUse">
<stop offset="0.7" stop-color="white"/>
<stop offset="1" stop-color="#C6C6C6"/>
</linearGradient>
<linearGradient id="paint14_linear_8_95" x1="460.9" y1="366.4" x2="460.9" y2="328.9" gradientUnits="userSpaceOnUse">
<stop offset="0.7" stop-color="white"/>
<stop offset="1" stop-color="#C6C6C6"/>
</linearGradient>
<linearGradient id="paint15_linear_8_95" x1="519.3" y1="366.4" x2="519.3" y2="328.9" gradientUnits="userSpaceOnUse">
<stop offset="0.7" stop-color="white"/>
<stop offset="1" stop-color="#C6C6C6"/>
</linearGradient>
<linearGradient id="paint16_linear_8_95" x1="576.4" y1="366.4" x2="576.4" y2="328.9" gradientUnits="userSpaceOnUse">
<stop offset="0.7" stop-color="white"/>
<stop offset="1" stop-color="#C6C6C6"/>
</linearGradient>
<linearGradient id="paint17_linear_8_95" x1="348.8" y1="250.4" x2="348.8" y2="218.3" gradientUnits="userSpaceOnUse">
<stop offset="0.7" stop-color="white"/>
<stop offset="1" stop-color="#C6C6C6"/>
</linearGradient>
<linearGradient id="paint18_linear_8_95" x1="349.5" y1="446.6" x2="349.5" y2="428.6" gradientUnits="userSpaceOnUse">
<stop offset="0.5" stop-color="white"/>
<stop offset="0.8" stop-color="#DADADA"/>
<stop offset="1" stop-color="#C6C6C6"/>
</linearGradient>
</defs>
</svg>
