<?xml version="1.0" encoding="UTF-8"?>
<svg id="Layer_1" xmlns="http://www.w3.org/2000/svg" version="1.1" viewBox="0 0 100 100">
  <!-- Generator: Adobe Illustrator 29.7.0, SVG Export Plug-In . SVG Version: 2.1.1 Build 138)  -->
  <defs>
    <style>
      .st0 {
        fill: #fff;
      }
    </style>
  </defs>
  <path class="st0" d="M85,15c-19.3-19.3-50.7-19.3-70,0-19.3,19.3-19.3,50.7,0,70,19.3,19.3,50.7,19.3,70,0,9.3-9.3,14.5-21.9,14.5-35,0-13.1-5.2-25.7-14.5-35ZM75.5,69.5s0,0,0,0h0s-2.5,2.5-2.5,2.5c-3.2,3.3-8,4.6-12.5,3.6-4.5-1.2-8.8-3.1-12.7-5.7-3.6-2.3-7-5-10-8.1-2.8-2.8-5.3-5.8-7.5-9.1-2.4-3.5-4.3-7.4-5.6-11.4-1.5-4.8-.3-10,3.3-13.5l2.9-2.9c.8-.8,2.1-.8,3,0,0,0,0,0,0,0l9.3,9.3c.8.8.8,2.1,0,3h0s-5.4,5.5-5.4,5.5c-1.6,1.5-1.8,4-.5,5.8,2,2.7,4.1,5.2,6.5,7.6,2.6,2.7,5.5,5.1,8.6,7.2,1.8,1.2,4.2,1,5.7-.5l5.3-5.3c.8-.8,2.1-.8,3,0h0s9.3,9.3,9.3,9.3c.8.8.8,2.1,0,3Z"/>
</svg>