<?xml version="1.0" encoding="UTF-8"?>
<svg id="Layer_1" xmlns="http://www.w3.org/2000/svg" version="1.1" viewBox="0 0 100 100">
  <!-- Generator: Adobe Illustrator 29.7.0, SVG Export Plug-In . SVG Version: 2.1.1 Build 138)  -->
  <defs>
    <style>
      .st0 {
        fill: #fff;
        fill-rule: evenodd;
      }
    </style>
  </defs>
  <path class="st0" d="M8.5,16.1l29.8,29.8c6.5,6.5,17.1,6.5,23.6,0l29.8-29.8c.3-.3.3-.8,0-1-3-2.1-6.7-3.4-10.7-3.4H19.2c-4,0-7.7,1.3-10.7,3.4-.3.2-.4.7,0,1h0ZM.5,30.4c0-3.1.8-6.1,2.1-8.7.2-.4.8-.5,1.1-.2l29.4,29.4c9.3,9.3,24.5,9.3,33.8,0l29.4-29.4c.3-.3.9-.2,1.1.2,1.4,2.6,2.1,5.6,2.1,8.7v39.1c0,10.3-8.4,18.7-18.7,18.7H19.2c-10.3,0-18.7-8.4-18.7-18.7V30.4Z"/>
</svg>