<?xml version="1.0" encoding="UTF-8"?>
<svg id="Layer_1" xmlns="http://www.w3.org/2000/svg" version="1.1" viewBox="0 0 80 80">
  <!-- Generator: Adobe Illustrator 29.7.0, SVG Export Plug-In . SVG Version: 2.1.1 Build 138)  -->
  <defs>
    <style>
      .st0 {
        fill: #ffbf00;
      }
    </style>
  </defs>
  <path class="st0" d="M47.4,46.6c-.3,0-.7-.1-.9-.3l-7.4-5.9c-.4-.3-.6-.7-.6-1.2v-11.8c0-.8.7-1.5,1.5-1.5s1.5.7,1.5,1.5v11.1l6.8,5.5c.6.5.7,1.4.2,2.1-.3.4-.7.6-1.2.6h0Z"/>
  <path class="st0" d="M40,61.6c-12.3,0-22.2-9.9-22.2-22.2s9.9-22.2,22.2-22.2,22.2,9.9,22.2,22.2c0,12.3-9.9,22.2-22.2,22.2ZM40,20.2c-10.6,0-19.2,8.6-19.2,19.2s8.6,19.2,19.2,19.2,19.2-8.6,19.2-19.2c0-10.6-8.6-19.2-19.2-19.2Z"/>
</svg>