<?xml version="1.0" encoding="UTF-8"?>
<svg id="Layer_1" xmlns="http://www.w3.org/2000/svg" version="1.1" viewBox="0 0 80 80">
  <!-- Generator: Adobe Illustrator 29.7.0, SVG Export Plug-In . SVG Version: 2.1.1 Build 138)  -->
  <defs>
    <style>
      .st0 {
        fill: #ffbf00;
      }
    </style>
  </defs>
  <path class="st0" d="M59.7,32.5c.4-2.2,1.3-6.6,1.8-8.8,0-.4-.2-.9-.6-1,0,0,0,0,0,0l-7-1.4c-.4,0-.9.2-1,.7,0,.2,0,.3,0,.5l.9,1.9-1.6,1.4c-.3.3-.4.8,0,1.2.1.1.3.2.5.3l6.2,1.2-.7,3.4c-8.8-3.6-25.7-3.6-35-.5l-.6-2.9,6.2-1.2c.4,0,.7-.5.6-1,0-.2-.1-.3-.3-.4l-1.6-1.4.9-1.9c.2-.4,0-.9-.4-1.1-.2,0-.3,0-.5,0l-7,1.4c-.4,0-.7.5-.6,1,0,0,0,0,0,0,.4,2,1.2,6.1,1.6,8.2-2.7,1.2-4.5,2.7-4.5,4.5v8.9c4.1,2.5,8.4,3.2,16.5,4,3.6-3.3,9.1-3.3,12.6,0,6.9-.5,12.1-1.8,14.9-3.1.6-.3,1.1-.6,1.6-1v-8.7c0-1.5-1.2-2.8-3.2-3.9h0ZM50.6,32c2.4.4,4.7,1,7,1.9l-5.5,3.7c-1.2-.7-2.4-1.2-3.7-1.5,0,0,2.2-4.2,2.2-4.2h0ZM41.3,31.2c2.5,0,5.1.2,7.6.6l-2.1,4.1c-1.8-.3-3.6-.5-5.5-.6v-4ZM32.1,31.6c2.5-.3,5.1-.4,7.6-.4v4c-1.9,0-3.9.2-5.8.5l-1.8-4.1ZM30.4,31.8l1.8,4.2c-1.5.3-3,.9-4.3,1.6l-5-3.9c2.4-.9,4.9-1.5,7.5-1.9h0ZM26.1,40c-5-1.4-8.7-3.3-4.8-5.5l5.4,4.2c-.3.4-.5.8-.6,1.3ZM52.4,40.4c-6.2,1.5-18.5,1.5-24.7,0,0-.4.4-.8.7-1.1,3-2.5,13.6-3.1,18.7-1.8,1.6.3,3.2.9,4.6,1.8.3.3.8.7.7,1.1h0ZM54,40c0-.4-.3-.9-.6-1.2l5.8-4c3.1,2.1-.5,3.9-5.3,5.2Z"/>
  <path class="st0" d="M18.8,48c-.6-.2-1.1-.5-1.6-.8v4.1c0,3.4,6,5.7,13.5,6.8v-1.6c0-2,.5-4,1.7-5.6-5.1-.5-10.1-1.4-13.6-2.8h0Z"/>
  <path class="st0" d="M47.7,50.8c1.5,2.1,1.8,4.7,1.7,7.2,7.5-1,13.5-3.3,13.5-6.8v-4.2c-4.2,2.3-9.4,3.1-15.2,3.7Z"/>
  <path class="st0" d="M40,48.5c-4.3,0-7.7,3.5-7.7,7.8,0,.1,0,.3,0,.4v1.6c5.1.6,10.3.6,15.4,0v-1.6c.2-4.3-3.1-7.9-7.4-8.1-.1,0-.2,0-.3,0h0Z"/>
</svg>